<?xml version="1.0" encoding="utf-8"?>
<!-- Generator: Adobe Illustrator 16.0.0, SVG Export Plug-In . SVG Version: 6.00 Build 0)  -->
<!DOCTYPE svg PUBLIC "-//W3C//DTD SVG 1.1//EN" "http://www.w3.org/Graphics/SVG/1.1/DTD/svg11.dtd">
<svg version="1.1" id="Capa_1" xmlns="http://www.w3.org/2000/svg" xmlns:xlink="http://www.w3.org/1999/xlink" x="0px" y="0px"
	 width="600px" height="400px" viewBox="0 0 600 400" enable-background="new 0 0 600 400" xml:space="preserve">
<path fill="#F55E4D" d="M300.458,152.818c3.635-10.095,15.41-30.611,51.124-30.611c47.362,0,92.471,58.639,95.478,63.152
	c3.006,4.509,40.595,48.866,71.42,35.335c30.825-13.532,23.306-24.058,31.575-23.306c8.272,0.751-7.021,36.216-36.342,55.012
	c-29.318,18.792-76.428,33.701-132.813,20.166c-39.123-9.387-67.025-32.53-80.442-45.82c-13.417,13.29-41.318,36.434-80.442,45.82
	c-56.385,13.535-111.267-6.014-140.585-24.81c-29.322-18.792-36.837-49.617-28.57-50.369c8.271-0.751,0.751,9.774,31.576,23.306
	c30.825,13.531,68.414-30.826,71.42-35.335c3.006-4.513,48.115-63.152,95.477-63.152
	C285.048,122.207,296.826,142.724,300.458,152.818z"/>
</svg>
