<?xml version="1.0" encoding="utf-8"?>
<!-- Generator: Adobe Illustrator 16.0.0, SVG Export Plug-In . SVG Version: 6.00 Build 0)  -->
<!DOCTYPE svg PUBLIC "-//W3C//DTD SVG 1.1//EN" "http://www.w3.org/Graphics/SVG/1.1/DTD/svg11.dtd">
<svg version="1.1" id="Capa_1" xmlns="http://www.w3.org/2000/svg" xmlns:xlink="http://www.w3.org/1999/xlink" x="0px" y="0px"
	 width="600px" height="400px" viewBox="0 0 600 400" enable-background="new 0 0 600 400" xml:space="preserve">
<g>
	<path fill="#FD6250" d="M85.666,228.521c-1.167,5.455-2.224,10.754-3.152,15.808c-1.17,6.362-2.246,12.142-3.219,17.326
		c-0.959,5.083-1.635,9.171-2.013,12.154c-0.773,5.299-3.361,8.639-7.493,9.729c-3.558,0.94-7.381,0.55-11.322-1.167
		c-3.881-1.696-7.416-4.644-10.505-8.761c-3.24-4.32-4.885-9.754-4.885-16.154c0-5.208,0.974-13.441,2.977-25.166
		c1.949-11.436,4.766-25.002,8.376-40.321c3.581-15.204,7.923-31.952,12.904-49.778c4.284-15.319,9.081-30.738,14.291-45.938
		c1.706-4.981,5.23-8.408,9.295-9.041c9.202-1.432,17.184-1.08,23.946,1.058c4.072,1.286,6.263,7.222,4.555,12.337
		c-4.362,13.055-8.386,26.077-11.979,38.754c-2.907,10.266-5.698,20.423-8.325,30.302c-0.259,0.972,0.482,1.881,1.182,1.45
		c3.507-2.164,6.973-4.714,10.356-7.623c5.55-4.776,10.603-10.478,15.022-16.953c4.406-6.456,8.017-13.747,10.732-21.673
		c2.687-7.837,4.05-16.366,4.05-25.347c0-11.55-2.388-20.076-7.094-25.344c-4.765-5.329-11.477-8.03-19.95-8.03
		c-9.024,0-17.275,2.869-24.526,8.527c-7.432,5.792-13.862,12.928-19.116,21.207c-5.284,8.322-9.447,17.22-12.372,26.446
		c-2.896,9.149-4.367,17.168-4.367,23.834c0,4.784-1.885,8.236-5.305,9.723c-3,1.307-6.302,1.119-9.696-0.58
		c-3.264-1.632-6.288-4.841-8.99-9.543c-2.72-4.729-4.099-11.133-4.099-19.03c0-6.893,1.95-15.015,5.958-24.832
		c3.911-9.565,9.687-18.877,17.167-27.674c7.47-8.788,16.902-16.412,28.035-22.657c11.202-6.282,24.151-9.467,38.482-9.467
		c8.163,0,16.345,1.28,24.321,3.807c8.042,2.552,15.33,6.436,21.66,11.538c6.409,5.163,11.671,11.647,15.64,19.273
		c4.042,7.76,6.089,16.86,6.089,27.046c0,10.977-1.798,21.267-5.345,30.58c-3.519,9.233-8.358,17.663-14.383,25.058
		c-5.967,7.334-13.04,13.808-21.024,19.238c-6.585,4.472-13.588,8.285-20.855,11.358c-0.461,0.194-0.628,0.515-0.607,1.162
		c0.157,4.855,0.416,9.641,0.775,14.264c0.411,5.3,0.957,10.471,1.622,15.373c0.653,4.816,1.439,9.511,2.333,13.953
		c0.694,3.436,1.467,6.785,2.299,9.955c0.529,2.025,1.087,3.999,1.655,5.867c1.136,3.749,2.389,7.333,3.724,10.66
		c1.307,3.262,2.725,6.359,4.215,9.208c1.448,2.772,3.005,5.384,4.63,7.765c1.579,2.312,3.249,4.446,4.969,6.343
		c1.676,1.849,3.442,3.519,5.249,4.968c1.759,1.407,3.603,2.63,5.482,3.641c1.852,0.992,3.771,1.789,5.701,2.369
		c1.928,0.582,3.924,0.961,5.935,1.136c2.011,0.166,4.102,0.13,6.188-0.122c2.121-0.247,4.288-0.72,6.449-1.397
		c2.204-0.694,4.456-1.619,6.693-2.752c2.291-1.16,4.609-2.561,6.894-4.162c0.875-0.609,1.757-1.258,2.636-1.939
		c2.853-2.204,6.491-1.152,8.408,2.434c1.918,3.587,1.491,8.54-0.989,11.446c-1.215,1.425-2.436,2.813-3.649,4.151
		c-2.931,3.222-5.876,6.21-8.748,8.883c-2.736,2.541-5.511,4.896-8.249,6.99c-1.374,1.054-2.816,2.095-4.275,3.089
		c-2.815,1.911-5.667,3.599-8.47,5.015c-2.801,1.406-5.61,2.57-8.351,3.459c-2.739,0.888-5.494,1.528-8.19,1.9
		c-1.918,0.262-3.841,0.394-5.716,0.394c-0.76,0-1.517-0.021-2.276-0.063c-2.602-0.151-5.195-0.564-7.704-1.227
		c-1.246-0.329-2.496-0.727-3.719-1.189c-1.184-0.437-2.398-0.959-3.613-1.553c-2.339-1.145-4.652-2.549-6.867-4.179
		c-2.177-1.598-4.312-3.447-6.341-5.5c-1.639-1.653-3.248-3.473-4.777-5.407c-1.842-2.324-3.631-4.897-5.327-7.645
		c-1.67-2.707-3.273-5.637-4.765-8.708c-1.491-3.066-2.904-6.331-4.203-9.709c-1.301-3.37-2.527-6.955-3.646-10.652
		c-1.104-3.653-2.142-7.538-3.077-11.554c-0.917-3.942-1.763-8.119-2.507-12.418c-0.741-4.292-1.384-8.747-1.918-13.242
		c-0.475-3.971-0.878-8.094-1.197-12.279C87.27,227.447,85.93,227.288,85.666,228.521"/>
	<path fill="#FD6250" d="M575.054,67.988c0,18.021-10.912,32.63-24.361,32.63c-13.454,0-24.363-14.608-24.363-32.63
		c0-18.02,10.909-32.628,24.363-32.628C564.142,35.359,575.054,49.968,575.054,67.988"/>
	<path fill="#FD6250" d="M569.614,199.598c-1.185-2.466-3.473-4.063-5.826-4.063c-2.231,0-4.237,1.403-5.497,3.849
		c-1.444,2.799-3.226,6.124-5.298,9.881c-2.273,4.119-4.727,8.072-7.292,11.74c-2.547,3.651-5.03,6.829-7.384,9.441
		c-2.431,2.701-4.002,3.269-4.895,3.269c-0.623,0-1.782,0-2.045-4.108c-0.271-4.303,0.204-9.894,1.414-16.624
		c1.241-6.913,3.035-14.589,5.336-22.812c2.343-8.368,4.698-16.364,6.99-23.759c2.385-7.685,4.436-14.076,6.262-19.535
		c1.824-5.435,2.964-8.971,3.4-10.517c1.457-4.477,0.925-8.889-1.541-12.766c-2.264-3.552-5.292-6.043-8.998-7.403
		c-3.621-1.329-7.567-1.404-11.681-0.229c-4.407,1.262-7.899,4.676-10.382,10.135c-2.188,4.796-5.033,12.33-8.459,22.391
		c-3.438,10.083-6.76,21.281-9.872,33.279c-1.889,7.276-3.634,14.676-5.208,22.122c-2.624,12.385-8.024,23.396-15.467,31.542
		c-2.665,2.917-5.47,5.665-8.387,8.22c-1.288,1.133-2.585,2.181-3.889,3.141c-0.412,0.301-0.842-0.363-0.557-0.865
		c2.249-3.967,4.461-8.251,6.618-12.831c4.448-9.434,8.5-20.729,12.045-33.574c3.747-13.6,6.1-26.005,6.988-36.873
		c0.896-11.003,0.586-20.603-0.931-28.535c-1.567-8.189-4.307-14.633-8.148-19.149c-3.976-4.669-8.894-7.036-14.606-7.036
		c-6.739,0-12.932,2.389-18.408,7.097c-3.737,3.22-7.204,6.813-10.346,10.733c-0.261,0.325-0.477,0.287-0.664-0.116
		c-0.699-1.489-1.639-2.89-2.82-4.202c-2.656-2.94-5.851-4.908-9.505-5.85c-3.665-0.93-7.388-0.594-11.02,1.003
		c-3.884,1.707-6.78,5.238-8.61,10.498c-3.513,10.135-7.222,21.96-11.025,35.152c-3.793,13.173-7.492,26.942-10.999,40.928
		c-0.388,1.551-0.774,3.104-1.159,4.656c-2.96,11.926-8.521,22.39-15.965,30.045c-1.961,2.021-3.991,3.949-6.077,5.777
		c-1.289,1.133-2.59,2.181-3.892,3.141c-0.412,0.303-0.842-0.362-0.559-0.865c2.249-3.961,4.46-8.248,6.619-12.831
		c4.446-9.426,8.5-20.72,12.049-33.574c3.746-13.602,6.099-26.005,6.987-36.873c0.896-11.007,0.586-20.607-0.93-28.535
		c-1.565-8.188-4.305-14.628-8.149-19.149c-3.979-4.669-8.894-7.036-14.603-7.036c-6.744,0-12.938,2.389-18.412,7.097
		c-3.741,3.22-7.206,6.813-10.345,10.729c-0.261,0.326-0.476,0.288-0.664-0.116c-0.699-1.484-1.64-2.887-2.823-4.196
		c-2.653-2.94-5.849-4.908-9.505-5.852c-3.668-0.933-7.392-0.594-11.018,1.003c-3.878,1.705-6.777,5.235-8.615,10.5
		c-3.513,10.148-7.222,21.974-11.019,35.151c-3.564,12.379-7.03,25.225-10.319,38.229c-2.481,9.814-6.196,17.7-11.741,24.921
		c-1.432,1.865-2.829,3.554-4.175,5.05c-2.432,2.701-4.003,3.269-4.895,3.269c-0.623,0-1.785,0-2.042-4.112
		c-0.275-4.29,0.2-9.88,1.411-16.62c1.237-6.911,3.033-14.587,5.334-22.812c2.318-8.283,4.673-16.278,6.994-23.759
		c2.342-7.54,4.449-14.114,6.261-19.535c1.858-5.541,2.969-8.985,3.393-10.519c1.465-4.475,0.934-8.888-1.533-12.765
		c-2.271-3.561-5.354-6.054-9.167-7.411c-3.723-1.321-7.661-1.395-11.676-0.216c-4.299,1.266-7.739,4.675-10.218,10.123
		c-0.497,1.078-1.014,2.266-1.562,3.586c-0.194,0.472-0.721,0.368-0.805-0.161c-0.471-2.975-1.233-5.787-2.271-8.399
		c-1.561-3.894-3.87-7.091-6.862-9.5c-3.041-2.446-6.9-3.686-11.469-3.686c-10.776,0-21.704,6.66-32.48,19.796
		c-10.58,12.901-19.349,33.479-26.071,61.183c-3.154,13.356-5.003,25.704-5.5,36.701c-0.499,11.128,0.171,20.729,1.99,28.538
		c1.874,8.051,4.867,14.406,8.9,18.889c4.159,4.631,9.155,6.979,14.851,6.979c4.213,0,8.234-0.974,11.949-2.897
		c3.601-1.861,6.94-4.257,9.924-7.115c2.296-2.199,4.433-4.688,6.374-7.42c1.384-1.95,3.823-1.163,4.394,1.415
		c0.637,2.89,1.527,5.462,2.666,7.697c2.814,5.521,7.27,8.32,13.241,8.32c6.613,0,13.296-3.322,19.862-9.873
		c3.062-3.051,6.051-6.38,8.948-9.956c0.65-0.804,1.678,0.058,1.422,1.192c-1.691,7.534-3.21,14.516-4.577,21.065
		c-2.308,11.012-4.182,20.494-5.577,28.19c-1.866,10.32-2.106,13.125-2.106,14.42c0,6.327,1.467,11.721,4.363,16.036
		c2.798,4.148,6.042,7.127,9.647,8.848c2.374,1.13,4.689,1.701,6.882,1.701c1.212,0,2.408-0.176,3.557-0.522
		c2.585-0.785,5.865-3.091,6.821-9.64l0.016-0.126c0.381-3.447,1.104-8.118,2.155-13.885c1.09-5.981,2.415-12.792,3.939-20.242
		c1.503-7.409,3.224-15.664,5.255-25.232c0.937-4.425,1.944-9.06,3.012-13.874c0.22-0.978,1.207-1.136,1.589-0.251
		c0.477,1.103,1.005,2.177,1.59,3.222c3.29,5.907,8.539,8.907,15.604,8.927c1.419,0.086,2.844,0.128,4.236,0.128h0.002
		c10.39,0,20.147-2.387,28.998-7.096c8.46-4.494,16.21-9.987,23.112-16.345c0.677-0.623,1.564,0.243,1.324,1.299
		c-1.98,8.744-3.769,16.93-5.339,24.444c-2.319,11.09-4.196,20.573-5.581,28.188c-1.862,10.341-2.102,13.138-2.102,14.42
		c0,6.325,1.467,11.72,4.364,16.036c2.797,4.151,6.043,7.129,9.647,8.848c2.372,1.128,4.685,1.701,6.877,1.701
		c1.213,0,2.409-0.176,3.563-0.522c2.586-0.785,5.863-3.091,6.82-9.64l0.016-0.128c0.38-3.459,1.104-8.128,2.157-13.884
		c1.088-5.979,2.409-12.79,3.935-20.241c1.511-7.441,3.232-15.696,5.256-25.232c0.94-4.434,1.945-9.067,3.012-13.875
		c0.219-0.98,1.206-1.138,1.59-0.254c0.475,1.103,1.006,2.179,1.591,3.226c3.286,5.904,8.536,8.907,15.604,8.927
		c1.419,0.086,2.843,0.128,4.234,0.128h0.002c10.385,0,20.145-2.387,28.998-7.096c9.912-5.264,18.867-11.893,26.625-19.7
		c1.317-1.327,2.603-2.672,3.854-4.029c0.575-0.62,1.43-0.062,1.416,0.926c-0.005,0.445-0.008,0.886-0.008,1.322
		c0,8.306,1.303,15.078,3.877,20.129c2.814,5.521,7.271,8.32,13.239,8.32c6.604,0,13.329-3.316,19.993-9.857
		c6.334-6.213,12.316-13.562,17.776-21.839c5.39-8.158,10.125-16.289,14.077-24.165c3.995-7.974,6.686-13.427,8.221-16.667
		C570.741,204.898,570.775,202.021,569.614,199.598 M232.509,157.113c-0.473,5.817-1.391,12.473-2.73,19.777
		c-1.342,7.279-3.183,14.947-5.472,22.795c-2.282,7.809-4.713,15.156-7.228,21.834c-2.465,6.522-4.959,12.087-7.412,16.539
		c-2.392,4.33-4.638,7.556-6.68,9.595c-1.512,1.509-2.347,1.674-2.635,1.674c-0.133,0-0.245-0.032-0.367-0.107
		c-0.277-0.166-1.221-1.018-1.714-4.996c-0.46-3.643-0.502-8.344-0.129-13.972c0.379-5.728,1.249-12.303,2.582-19.548
		c1.332-7.252,3.173-14.92,5.474-22.793c2.313-7.912,4.746-15.258,7.233-21.84c2.454-6.517,4.949-12.15,7.422-16.738
		c2.378-4.426,4.622-7.705,6.661-9.743c1.513-1.507,2.35-1.67,2.641-1.67c0.136,0,0.248,0.031,0.354,0.094
		c0.289,0.175,1.278,1.062,1.883,5.094C232.932,146.69,232.972,151.402,232.509,157.113 M350.528,157.46
		c-0.762,5.739-1.973,12.352-3.599,19.653c-1.641,7.328-3.729,15.015-6.187,22.781c-2.689,7.883-5.464,15.238-8.247,21.86
		c-2.769,6.565-5.515,12.21-8.162,16.778c-2.576,4.45-4.967,7.742-7.109,9.793c-1.61,1.54-2.499,1.707-2.806,1.707
		c-0.145,0-0.261-0.031-0.385-0.105c-0.266-0.161-1.163-0.984-1.558-4.909c-0.362-3.571-0.168-8.286,0.575-14.011
		c0.759-5.867,1.973-12.534,3.602-19.82c1.616-7.256,3.702-14.944,6.209-22.849c2.487-7.86,5.197-15.18,8.062-21.754
		c2.878-6.597,5.67-12.185,8.302-16.605c2.576-4.336,4.974-7.581,7.124-9.643c1.616-1.544,2.507-1.709,2.815-1.709
		c0.143,0,0.263,0.031,0.37,0.098c0.269,0.162,1.17,0.993,1.566,4.913C351.461,147.221,351.267,151.872,350.528,157.46
		 M459.61,157.46c-0.764,5.735-1.976,12.349-3.601,19.653c-1.633,7.291-3.721,14.98-6.187,22.781
		c-2.686,7.871-5.461,15.225-8.252,21.86c-2.763,6.563-5.509,12.207-8.155,16.778c-2.582,4.452-4.971,7.745-7.109,9.789
		c-1.609,1.544-2.502,1.711-2.81,1.711c-0.144,0-0.259-0.031-0.384-0.105c-0.266-0.161-1.165-0.99-1.556-4.908
		c-0.364-3.59-0.17-8.301,0.576-14.012c0.759-5.889,1.969-12.554,3.599-19.82c1.615-7.253,3.702-14.939,6.206-22.849
		c2.48-7.842,5.195-15.16,8.068-21.756c2.867-6.589,5.659-12.172,8.301-16.605c2.563-4.325,4.961-7.569,7.123-9.639
		c1.614-1.545,2.505-1.711,2.813-1.711c0.144,0,0.264,0.031,0.373,0.098c0.265,0.162,1.163,0.993,1.563,4.913
		C460.541,147.229,460.349,151.881,459.61,157.46"/>
</g>
</svg>
